<?xml version="1.0" encoding="UTF-8"?>
<svg xmlns="http://www.w3.org/2000/svg" xmlns:xlink="http://www.w3.org/1999/xlink" width="120px" height="120px" viewBox="0 0 120 120" version="1.1">
<g id="surface1">
<path style=" stroke:none;fill-rule:nonzero;fill:rgb(0%,0%,0%);fill-opacity:1;" d="M 50.484375 0.132812 C 49.621094 0.402344 49.003906 0.945312 48.617188 1.773438 C 48.421875 2.195312 48.421875 2.296875 48.394531 8.210938 L 48.367188 14.210938 L 47.410156 14.484375 C 43.773438 15.496094 39.582031 17.277344 36.476562 19.125 L 35.679688 19.601562 L 31.320312 15.242188 C 27.207031 11.148438 26.925781 10.882812 26.4375 10.726562 C 25.667969 10.472656 24.816406 10.507812 24.132812 10.820312 C 23.632812 11.042969 22.914062 11.738281 17.289062 17.371094 C 10.292969 24.375 10.554688 24.066406 10.546875 25.3125 C 10.546875 26.644531 10.386719 26.4375 15.179688 31.246094 L 19.453125 35.539062 L 19.226562 35.933594 C 17.992188 38.148438 16.949219 40.3125 16.144531 42.328125 C 15.589844 43.714844 14.699219 46.40625 14.371094 47.671875 L 14.203125 48.328125 L 2.203125 48.421875 L 1.667969 48.683594 C 1.058594 48.984375 0.535156 49.519531 0.242188 50.148438 L 0.046875 50.578125 L 0.046875 69.421875 L 0.308594 69.957031 C 0.609375 70.566406 1.144531 71.089844 1.773438 71.382812 C 2.195312 71.578125 2.296875 71.578125 8.25 71.605469 L 14.296875 71.632812 L 14.699219 73.050781 C 15.675781 76.472656 17.511719 80.773438 19.171875 83.476562 L 19.585938 84.140625 L 19.050781 84.703125 C 18.757812 85.011719 17.371094 86.429688 15.984375 87.84375 C 10.265625 93.648438 10.546875 93.300781 10.546875 94.640625 C 10.554688 95.230469 10.601562 95.484375 10.773438 95.859375 C 10.949219 96.234375 12.273438 97.613281 17.289062 102.628906 C 21.601562 106.941406 23.710938 108.984375 23.980469 109.117188 C 24.824219 109.539062 25.828125 109.554688 26.699219 109.164062 C 26.914062 109.058594 28.648438 107.398438 31.359375 104.699219 L 35.679688 100.40625 L 36.75 101.015625 C 39.824219 102.769531 43.414062 104.277344 46.847656 105.261719 L 48.367188 105.703125 L 48.394531 111.75 C 48.421875 117.703125 48.421875 117.804688 48.617188 118.226562 C 48.910156 118.855469 49.433594 119.390625 50.042969 119.691406 L 50.578125 119.953125 L 69.421875 119.953125 L 69.957031 119.691406 C 70.566406 119.390625 71.089844 118.855469 71.382812 118.226562 C 71.578125 117.804688 71.578125 117.703125 71.605469 111.789062 L 71.632812 105.769531 L 72.214844 105.609375 C 76.039062 104.570312 79.882812 102.964844 83.335938 100.988281 L 84.402344 100.378906 L 88.679688 104.691406 C 93.496094 109.554688 93.355469 109.445312 94.640625 109.445312 C 95.230469 109.445312 95.492188 109.398438 95.859375 109.226562 C 96.542969 108.910156 108.890625 96.554688 109.226562 95.859375 C 109.546875 95.195312 109.546875 93.984375 109.226562 93.375 C 109.085938 93.09375 107.597656 91.527344 104.710938 88.632812 L 100.398438 84.320312 L 100.921875 83.429688 C 101.71875 82.097656 103.125 79.171875 103.808594 77.4375 C 104.429688 75.882812 105.195312 73.554688 105.515625 72.308594 L 105.695312 71.632812 L 111.742188 71.605469 C 117.703125 71.578125 117.804688 71.578125 118.226562 71.382812 C 118.855469 71.089844 119.390625 70.566406 119.691406 69.957031 L 119.953125 69.421875 L 119.953125 50.578125 L 119.691406 50.042969 C 119.390625 49.433594 118.855469 48.910156 118.226562 48.617188 C 117.804688 48.421875 117.703125 48.421875 111.789062 48.394531 L 105.769531 48.367188 L 105.664062 47.953125 C 104.8125 44.578125 103.039062 40.273438 101.070312 36.84375 L 100.40625 35.679688 L 104.757812 31.3125 C 109.632812 26.429688 109.460938 26.644531 109.445312 25.3125 C 109.433594 24.054688 109.660156 24.320312 102.675781 17.324219 C 97.097656 11.746094 96.367188 11.042969 95.867188 10.820312 C 95.183594 10.507812 94.332031 10.472656 93.5625 10.726562 C 93.074219 10.882812 92.792969 11.148438 88.6875 15.242188 L 84.320312 19.59375 L 83.25 18.976562 C 80.195312 17.222656 76.304688 15.601562 72.777344 14.617188 L 71.632812 14.296875 L 71.605469 8.25 C 71.578125 2.277344 71.578125 2.195312 71.371094 1.761719 C 71.089844 1.144531 70.480469 0.523438 69.910156 0.273438 L 69.421875 0.046875 L 60.140625 0.0273438 C 52.835938 0.0195312 50.773438 0.0390625 50.484375 0.132812 Z M 61.359375 42.570312 C 66.796875 43.03125 71.550781 45.824219 74.578125 50.34375 C 75.242188 51.335938 76.210938 53.296875 76.59375 54.449219 C 78.65625 60.570312 77.109375 67.398438 72.609375 72.085938 C 67.386719 77.523438 59.351562 79.023438 52.59375 75.835938 C 48.917969 74.089844 46.070312 71.289062 44.296875 67.640625 C 43.265625 65.539062 42.769531 63.683594 42.5625 61.265625 C 42.429688 59.746094 42.554688 58.03125 42.890625 56.390625 C 44.445312 48.910156 50.851562 43.238281 58.5 42.570312 C 59.785156 42.460938 60.101562 42.460938 61.359375 42.570312 Z M 61.359375 42.570312 "/>
</g>
</svg>
